<svg width="1834" height="487" viewBox="0 0 1834 487" fill="none" xmlns="http://www.w3.org/2000/svg">
<path d="M566.4 157.8C552.533 157.8 542.4 155.267 536 150.2C529.867 144.867 526.8 136.6 526.8 125.4C526.8 113.933 529.867 105.667 536 100.6C542.4 95.2667 552.533 92.6 566.4 92.6C580 92.6 590 95.2667 596.4 100.6C602.8 105.667 606 113.933 606 125.4C606 136.6 602.8 144.867 596.4 150.2C590 155.267 580 157.8 566.4 157.8ZM600.4 181V381H532.4V181H600.4ZM648.806 381V181H709.606L713.206 249.8L705.606 242.2C708.273 227.8 712.94 215.8 719.606 206.2C726.54 196.6 735.073 189.4 745.206 184.6C755.606 179.533 767.206 177 780.006 177C793.873 177 805.873 179.667 816.006 185C826.406 190.333 834.54 198.2 840.406 208.6C846.273 219 849.206 232.067 849.206 247.8V381H781.206V265.8C781.206 251.933 778.54 242.333 773.206 237C767.873 231.667 761.073 229 752.806 229C746.406 229 740.406 230.6 734.806 233.8C729.206 236.733 724.806 241.533 721.606 248.2C718.406 254.867 716.806 263.8 716.806 275V381H648.806ZM970.453 385C953.92 385 939.386 381 926.853 373C914.586 364.733 904.986 352.867 898.053 337.4C891.386 321.933 888.053 303.4 888.053 281.8C888.053 259.4 891.52 240.467 898.453 225C905.653 209.533 915.52 197.667 928.053 189.4C940.853 181.133 955.52 177 972.053 177C990.186 177 1004.72 182.6 1015.65 193.8C1026.85 204.733 1034.05 218.733 1037.25 235.8L1030.85 244.2V96.2H1098.85V381H1038.05L1033.65 313L1041.65 319C1040.05 332.333 1035.92 343.933 1029.25 353.8C1022.85 363.667 1014.59 371.4 1004.45 377C994.586 382.333 983.253 385 970.453 385ZM994.053 335C1001.79 335 1008.32 333 1013.65 329C1019.25 324.733 1023.52 318.467 1026.45 310.2C1029.39 301.933 1030.85 291.8 1030.85 279.8C1030.85 268.6 1029.39 259.133 1026.45 251.4C1023.79 243.4 1019.65 237.4 1014.05 233.4C1008.72 229.133 1002.19 227 994.453 227C982.72 227 973.386 231.4 966.453 240.2C959.786 248.733 956.453 262.333 956.453 281C956.453 299.667 959.786 313.4 966.453 322.2C973.12 330.733 982.32 335 994.053 335ZM1245.23 385C1223.1 385 1203.9 380.867 1187.63 372.6C1171.63 364.333 1159.23 352.467 1150.43 337C1141.63 321.533 1137.23 302.867 1137.23 281C1137.23 259.133 1141.63 240.467 1150.43 225C1159.23 209.533 1171.5 197.667 1187.23 189.4C1203.23 181.133 1221.5 177 1242.03 177C1263.1 177 1280.97 181.133 1295.63 189.4C1310.57 197.4 1321.9 208.6 1329.63 223C1337.37 237.133 1341.23 253.4 1341.23 271.8C1341.23 276.6 1341.1 281.4 1340.83 286.2C1340.57 291 1340.17 295 1339.63 298.2H1181.23V261.8H1309.63L1277.23 274.2C1277.23 258.2 1274.3 245.933 1268.43 237.4C1262.83 228.867 1254.03 224.6 1242.03 224.6C1233.5 224.6 1226.17 226.6 1220.03 230.6C1214.17 234.6 1209.63 240.867 1206.43 249.4C1203.5 257.933 1202.03 268.867 1202.03 282.2C1202.03 295.267 1203.77 305.933 1207.23 314.2C1210.7 322.2 1215.63 328.067 1222.03 331.8C1228.43 335.267 1236.17 337 1245.23 337C1255.37 337 1263.37 335 1269.23 331C1275.37 327 1279.9 321.4 1282.83 314.2L1337.23 332.2C1333.5 343.667 1326.97 353.4 1317.63 361.4C1308.57 369.133 1297.63 375 1284.83 379C1272.3 383 1259.1 385 1245.23 385ZM1427.92 181L1476.72 271L1499.12 269L1577.92 381H1499.92L1449.52 289.8H1425.92L1349.52 181H1427.92ZM1576.32 181L1500.72 289L1475.52 287.4L1423.12 381H1346.72L1427.12 268.2L1450.32 271.4L1499.92 181H1576.32ZM1767.07 181L1668.67 420.2C1663.87 431.933 1658.8 441.133 1653.47 447.8C1648.13 454.733 1642.13 459.667 1635.47 462.6C1628.8 465.533 1621.33 467 1613.07 467C1605.6 467 1598.93 465.8 1593.07 463.4C1587.2 461.267 1582.53 458.067 1579.07 453.8L1583.47 444.6C1586.93 449.133 1591.2 452.333 1596.27 454.2C1601.6 456.067 1607.2 457 1613.07 457C1622.67 457 1631.07 454.333 1638.27 449C1645.47 443.667 1652.27 433.267 1658.67 417.8L1673.47 381.4L1651.87 330.6L1588.67 181H1601.47L1671.07 348.6L1679.07 368.6L1687.47 347.4L1755.07 181H1767.07Z" fill="#147B58"/>
<g clip-path="url(#clip0_402_160)">
<rect x="57" y="44" width="400" height="400" fill="white"/>
<rect x="214" y="159" width="70" height="170" fill="#147B58"/>
<rect x="239" y="109" width="20" height="270" fill="#147B58"/>
</g>
<rect x="66" y="53" width="382" height="382" stroke="#147B58" stroke-width="18"/>
<defs>
<clipPath id="clip0_402_160">
<rect x="57" y="44" width="400" height="400" fill="white"/>
</clipPath>
</defs>
</svg>
