<svg width="1472" height="375" viewBox="0 0 1472 375" fill="none" xmlns="http://www.w3.org/2000/svg">
<path d="M483.185 37.9618H524.888V81.9361H483.185V37.9618ZM483.833 103.275H524.24V270.801H483.833V103.275Z" fill="#0D1C13"/>
<path d="M564.235 103.275H604.643V158.567C604.643 121.371 627.91 99.0894 657.656 99.0894C694.824 99.0894 713.555 126.912 713.555 157.623V270.801H673.148V171.83C673.148 152.082 658.952 137.876 639.573 137.876C618.544 137.876 604.702 153.085 604.702 173.421V270.742H564.294V103.216L564.235 103.275Z" fill="#0D1C13"/>
<path d="M741.652 187.038C741.652 134.988 772.694 99.0896 814.339 99.0896C847.973 99.0896 871.534 122.02 875.068 162.457V44.3871H915.476V270.743H875.068V208.672C871.534 251.054 850.211 274.987 814.339 274.987C772.989 274.987 741.652 236.848 741.652 187.038ZM830.184 238.086C856.337 238.086 877.012 216.394 877.012 186.979C877.012 155.266 855.041 135.872 829.831 135.872C804.62 135.872 782.649 156.563 782.649 186.979C782.649 217.396 803.678 238.086 830.125 238.086H830.184Z" fill="#0D1C13"/>
<path d="M943.573 186.389C943.573 135.931 979.445 99.0894 1029.87 99.0894C1080.29 99.0894 1111.92 137.876 1111.92 180.259C1111.92 188.983 1110.98 197.707 1109.98 202.6H983.628C989.459 226.532 1007.84 239.795 1030.81 239.795C1048.89 239.795 1065.68 230.423 1072.81 219.105L1102.2 239.147C1088.95 259.837 1063.74 275.045 1028.87 275.045C981.036 275.045 943.573 241.092 943.573 186.448V186.389ZM1072.87 170.179C1071.57 151.08 1055.08 133.337 1029.87 133.337C1006.25 133.337 989.459 148.192 983.981 170.179H1072.87Z" fill="#0D1C13"/>
<path d="M1160.4 184.444L1122.58 103.275H1165.58L1201.1 181.851L1235.67 103.275H1278.67L1241.21 185.741L1281.91 270.801H1239.56L1201.1 187.392L1161.34 270.801H1119.34L1160.4 184.444Z" fill="#0D1C13"/>
<path d="M1290.63 103.275H1334.28L1378.87 265.614L1427.64 103.275H1471.94L1397.31 338.708H1353.66L1375.98 270.801H1340.47L1290.69 103.275H1290.63Z" fill="#0D1C13"/>
<path d="M0 0V374.017H373.742V0H0ZM227.426 270.742H201.391V319.55H172.646V270.742H146.611V103.216H172.646V54.4078H201.391V103.216H227.426V270.742Z" fill="#0D1C13"/>
</svg>
