<svg width="130" height="30" viewBox="0 0 130 30" fill="none" xmlns="http://www.w3.org/2000/svg">
<g clip-path="url(#clip0_153_1391)">
<g clip-path="url(#clip1_153_1391)">
<g clip-path="url(#clip2_153_1391)">
<g clip-path="url(#clip3_153_1391)">
<path d="M37.1836 4.35876H40.4963V7.88707H37.1836V4.35876ZM37.2347 9.59962H40.4452V23.0372H37.2347V9.59962Z" fill="white"/>
<path d="M43.6328 9.5996H46.8433V14.0334C46.8433 11.0494 48.6925 9.26178 51.0573 9.26178C54.0123 9.26178 55.499 11.4904 55.499 13.9584V23.0372H52.2886V15.0985C52.2886 13.5173 51.1595 12.3772 49.617 12.3772C47.9491 12.3772 46.8433 13.5971 46.8433 15.2299V23.0372H43.6328V9.5996Z" fill="white"/>
<path d="M57.7344 16.3137C57.7344 12.1379 60.2015 9.25711 63.5142 9.25711C66.1857 9.25711 68.0627 11.0963 68.3415 14.3431V4.87488H71.552V23.0325H68.3415V18.0544C68.0581 21.4514 66.3622 23.3703 63.5142 23.3703C60.2247 23.3703 57.7344 20.3112 57.7344 16.3137ZM64.7686 20.4144C66.8501 20.4144 68.4948 18.6784 68.4948 16.3184C68.4948 13.7754 66.7479 12.2224 64.7454 12.2224C62.7429 12.2224 60.996 13.8833 60.996 16.3184C60.996 18.7535 62.6639 20.4144 64.7733 20.4144H64.7686Z" fill="white"/>
<path d="M73.7812 16.2621C73.7812 12.2177 76.634 9.25708 80.6389 9.25708C84.6439 9.25708 87.1621 12.3678 87.1621 15.7694C87.1621 16.4685 87.0831 17.1723 87.0088 17.557H76.9639C77.4238 19.476 78.892 20.5411 80.7133 20.5411C82.1536 20.5411 83.487 19.7904 84.0539 18.8802L86.3909 20.4895C85.3362 22.1504 83.3337 23.3703 80.56 23.3703C76.7594 23.3703 73.7812 20.649 73.7812 16.2621ZM84.0585 14.9671C83.9563 13.4376 82.6461 12.0112 80.6436 12.0112C78.7666 12.0112 77.4331 13.203 76.9964 14.9671H84.0585Z" fill="white"/>
<path d="M91.0194 16.1073L88.0134 9.59491H91.4283L94.2531 15.8961L97.0036 9.59491H100.419L97.4404 16.2105L100.679 23.0325H97.3149L94.2578 16.3419L91.0984 23.0325H87.7578L91.0194 16.1073Z" fill="white"/>
<path d="M101.367 9.59961H104.833L108.378 22.6196L112.258 9.59961H115.775L109.842 28.4845H106.376L108.146 23.0372H105.321L101.367 9.59961Z" fill="white"/>
<path d="M29.4847 0H-0.222656V30H29.4847V0ZM17.8554 21.7188H15.7879V25.6318H13.502V21.7188H11.4345V8.2812H13.502V4.36816H15.7879V8.2812H17.8554V21.7188Z" fill="white"/>
</g>
</g>
</g>
</g>
<defs>
<clipPath id="clip0_153_1391">
<rect width="130" height="30" fill="white"/>
</clipPath>
<clipPath id="clip1_153_1391">
<rect width="130" height="30" fill="white"/>
</clipPath>
<clipPath id="clip2_153_1391">
<rect width="130" height="30" fill="white"/>
</clipPath>
<clipPath id="clip3_153_1391">
<rect width="116" height="30" fill="white" transform="translate(-0.222656)"/>
</clipPath>
</defs>
</svg>
