<svg width="1472" height="375" viewBox="0 0 1472 375" fill="none" xmlns="http://www.w3.org/2000/svg">
<path d="M483.186 37.9617H524.889V81.9359H483.186V37.9617ZM483.833 103.275H524.241V270.801H483.833V103.275Z" fill="white"/>
<path d="M564.236 103.275H604.644V158.567C604.644 121.371 627.911 99.0894 657.657 99.0894C694.825 99.0894 713.556 126.912 713.556 157.623V270.801H673.149V171.83C673.149 152.082 658.953 137.876 639.574 137.876C618.545 137.876 604.703 153.085 604.703 173.421V270.742H564.295V103.216L564.236 103.275Z" fill="white"/>
<path d="M741.653 187.038C741.653 134.988 772.695 99.0898 814.34 99.0898C847.974 99.0898 871.535 122.02 875.069 162.457V44.3872H915.477V270.743H875.069V208.672C871.535 251.054 850.212 274.987 814.34 274.987C772.99 274.987 741.653 236.848 741.653 187.038ZM830.185 238.086C856.338 238.086 877.013 216.394 877.013 186.979C877.013 155.266 855.042 135.873 829.832 135.873C804.621 135.873 782.65 156.563 782.65 186.979C782.65 217.396 803.679 238.086 830.126 238.086H830.185Z" fill="white"/>
<path d="M943.574 186.389C943.574 135.931 979.446 99.0894 1029.87 99.0894C1080.29 99.0894 1111.92 137.876 1111.92 180.259C1111.92 188.983 1110.98 197.707 1109.98 202.6H983.629C989.46 226.532 1007.84 239.795 1030.81 239.795C1048.89 239.795 1065.68 230.423 1072.81 219.105L1102.2 239.147C1088.95 259.837 1063.74 275.045 1028.87 275.045C981.037 275.045 943.574 241.092 943.574 186.448V186.389ZM1072.87 170.179C1071.57 151.08 1055.08 133.337 1029.87 133.337C1006.25 133.337 989.46 148.192 983.982 170.179H1072.87Z" fill="white"/>
<path d="M1160.4 184.444L1122.58 103.275H1165.58L1201.1 181.851L1235.68 103.275H1278.68L1241.21 185.741L1281.92 270.801H1239.56L1201.1 187.392L1161.34 270.801H1119.34L1160.4 184.444Z" fill="white"/>
<path d="M1290.63 103.275H1334.28L1378.87 265.614L1427.64 103.275H1471.94L1397.31 338.708H1353.66L1375.98 270.801H1340.47L1290.69 103.275H1290.63Z" fill="white"/>
<path d="M0 0V374.017H373.742V0H0ZM227.426 270.742H201.391V319.55H172.646V270.742H146.611V103.216H172.646V54.4078H201.391V103.216H227.426V270.742Z" fill="white"/>
</svg>
